# xmcd CD database file
#
# Track frame offsets:
#	150
#	18520
#	33840
#	50747
#	68302
#	83697
#	101227
#	114635
#	134950
#	148585
#	166855
#	183847
#	202625
#	230290
#
# Disc length: 4440 seconds
#
# Revision: 1
# Processed by: cddbd v1.5.2PL0 Copyright (c) Steve Scherf et al.
# Submitted via: CDex 1.51
#
DISCID=b511560e
DTITLE=Keri Noble - Fearless
DYEAR=2004
DGENRE=Rock
TTITLE0=Look At Me
TTITLE1=Talk To Me
TTITLE2=Piece Of My Heart
TTITLE3=A Dream About You
TTITLE4=About Me
TTITLE5=Let It Rain
TTITLE6=Falling
TTITLE7=Love Is All Know
TTITLE8=Answerd Prayer
TTITLE9=Bartender
TTITLE10=I Won't
TTITLE11=If No One Will Listen
TTITLE12=Moving To Dallas
TTITLE13=Data
EXTD=YEAR: 2004
EXTT0=
EXTT1=
EXTT2=
EXTT3=
EXTT4=
EXTT5=
EXTT6=
EXTT7=
EXTT8=
EXTT9=
EXTT10=
EXTT11=
EXTT12=
EXTT13=
PLAYORDER=
